<svg width="20" height="20" viewBox="0 0 20 20" fill="none" xmlns="http://www.w3.org/2000/svg">
<g clip-path="url(#clip0_183_979)">
<path d="M14.5834 5.41666H14.5917M5.83341 1.66666H14.1667C16.4679 1.66666 18.3334 3.53214 18.3334 5.83332V14.1667C18.3334 16.4678 16.4679 18.3333 14.1667 18.3333H5.83341C3.53223 18.3333 1.66675 16.4678 1.66675 14.1667V5.83332C1.66675 3.53214 3.53223 1.66666 5.83341 1.66666ZM13.3334 9.47499C13.4363 10.1685 13.3178 10.8768 12.9949 11.4992C12.672 12.1215 12.161 12.6262 11.5348 12.9414C10.9085 13.2566 10.1988 13.3663 9.50657 13.2549C8.81435 13.1435 8.17488 12.8167 7.67911 12.321C7.18335 11.8252 6.85652 11.1857 6.74514 10.4935C6.63375 9.80128 6.74347 9.09157 7.05869 8.4653C7.3739 7.83903 7.87857 7.32811 8.5009 7.00519C9.12323 6.68228 9.83154 6.56381 10.5251 6.66666C11.2325 6.77156 11.8875 7.10121 12.3932 7.60691C12.8989 8.11261 13.2285 8.76755 13.3334 9.47499Z" stroke="white" stroke-width="2" stroke-linecap="round" stroke-linejoin="round"/>
</g>
<defs>
<clipPath id="clip0_183_979">
<rect width="20" height="20" fill="white"/>
</clipPath>
</defs>
</svg>
