<svg width="150" height="222" viewBox="0 0 150 222" fill="none" xmlns="http://www.w3.org/2000/svg">
<g id="Frame" opacity="0.04" clip-path="url(#clip0_571_1346)">
<g id="Group">
<path id="Vector" d="M2.36298 0H-7.46289V13.1667H2.36298V0Z" stroke="white" stroke-width="0.630746"/>
<path id="Vector_2" d="M12.1887 3.05176e-05H2.36279V13.1667H12.1887V3.05176e-05Z" stroke="white" stroke-width="0.630746"/>
<path id="Vector_3" d="M22.0148 3.05176e-05H12.189V13.1667H22.0148V3.05176e-05Z" stroke="white" stroke-width="0.630746"/>
<path id="Vector_4" d="M31.8405 3.05176e-05H22.0146V13.1667H31.8405V3.05176e-05Z" stroke="white" stroke-width="0.630746"/>
<path id="Vector_5" d="M41.6667 3.05176e-05H31.8408V13.1667H41.6667V3.05176e-05Z" stroke="white" stroke-width="0.630746"/>
<path id="Vector_6" d="M51.4924 3.05176e-05H41.6665V13.1667H51.4924V3.05176e-05Z" stroke="white" stroke-width="0.630746"/>
<path id="Vector_7" d="M61.3181 3.05176e-05H51.4922V13.1667H61.3181V3.05176e-05Z" stroke="white" stroke-width="0.630746"/>
<path id="Vector_8" d="M71.1442 3.05176e-05H61.3184V13.1667H71.1442V3.05176e-05Z" stroke="white" stroke-width="0.630746"/>
<path id="Vector_9" d="M80.9699 3.05176e-05H71.144V13.1667H80.9699V3.05176e-05Z" stroke="white" stroke-width="0.630746"/>
<path id="Vector_10" d="M90.7956 3.05176e-05H80.9697V13.1667H90.7956V3.05176e-05Z" stroke="white" stroke-width="0.630746"/>
<path id="Vector_11" d="M100.622 3.05176e-05H90.7959V13.1667H100.622V3.05176e-05Z" stroke="white" stroke-width="0.630746"/>
<path id="Vector_12" d="M110.447 3.05176e-05H100.622V13.1667H110.447V3.05176e-05Z" stroke="white" stroke-width="0.630746"/>
<path id="Vector_13" d="M120.274 3.05176e-05H110.448V13.1667H120.274V3.05176e-05Z" stroke="white" stroke-width="0.630746"/>
<path id="Vector_14" d="M130.099 3.05176e-05H120.273V13.1667H130.099V3.05176e-05Z" stroke="white" stroke-width="0.630746"/>
<path id="Vector_15" d="M139.925 3.05176e-05H130.099V13.1667H139.925V3.05176e-05Z" stroke="white" stroke-width="0.630746"/>
<path id="Vector_16" d="M149.751 3.05176e-05H139.925V13.1667H149.751V3.05176e-05Z" stroke="white" stroke-width="0.630746"/>
<path id="Vector_17" d="M159.577 3.05176e-05H149.751V13.1667H159.577V3.05176e-05Z" stroke="white" stroke-width="0.630746"/>
<path id="Vector_18" d="M2.36298 13.1667H-7.46289V26.3334H2.36298V13.1667Z" stroke="white" stroke-width="0.630746"/>
<path id="Vector_19" d="M12.1887 13.1667H2.36279V26.3334H12.1887V13.1667Z" stroke="white" stroke-width="0.630746"/>
<path id="Vector_20" d="M22.0148 13.1667H12.189V26.3334H22.0148V13.1667Z" stroke="white" stroke-width="0.630746"/>
<path id="Vector_21" d="M31.8405 13.1667H22.0146V26.3334H31.8405V13.1667Z" stroke="white" stroke-width="0.630746"/>
<path id="Vector_22" d="M41.6667 13.1667H31.8408V26.3334H41.6667V13.1667Z" stroke="white" stroke-width="0.630746"/>
<path id="Vector_23" d="M51.4924 13.1667H41.6665V26.3334H51.4924V13.1667Z" stroke="white" stroke-width="0.630746"/>
<path id="Vector_24" d="M61.3181 13.1667H51.4922V26.3334H61.3181V13.1667Z" stroke="white" stroke-width="0.630746"/>
<path id="Vector_25" d="M71.1442 13.1667H61.3184V26.3334H71.1442V13.1667Z" stroke="white" stroke-width="0.630746"/>
<path id="Vector_26" d="M80.9699 13.1667H71.144V26.3334H80.9699V13.1667Z" stroke="white" stroke-width="0.630746"/>
<path id="Vector_27" d="M90.7956 13.1667H80.9697V26.3334H90.7956V13.1667Z" stroke="white" stroke-width="0.630746"/>
<path id="Vector_28" d="M100.622 13.1667H90.7959V26.3334H100.622V13.1667Z" stroke="white" stroke-width="0.630746"/>
<path id="Vector_29" d="M110.447 13.1667H100.622V26.3334H110.447V13.1667Z" stroke="white" stroke-width="0.630746"/>
<path id="Vector_30" d="M120.274 13.1667H110.448V26.3334H120.274V13.1667Z" stroke="white" stroke-width="0.630746"/>
<path id="Vector_31" d="M130.099 13.1667H120.273V26.3334H130.099V13.1667Z" stroke="white" stroke-width="0.630746"/>
<path id="Vector_32" d="M139.925 13.1667H130.099V26.3334H139.925V13.1667Z" stroke="white" stroke-width="0.630746"/>
<path id="Vector_33" d="M149.751 13.1667H139.925V26.3334H149.751V13.1667Z" stroke="white" stroke-width="0.630746"/>
<path id="Vector_34" d="M159.577 13.1667H149.751V26.3334H159.577V13.1667Z" stroke="white" stroke-width="0.630746"/>
<path id="Vector_35" d="M2.36298 26.3334H-7.46289V39.5H2.36298V26.3334Z" stroke="white" stroke-width="0.630746"/>
<path id="Vector_36" d="M12.1887 26.3334H2.36279V39.5H12.1887V26.3334Z" stroke="white" stroke-width="0.630746"/>
<path id="Vector_37" d="M22.0148 26.3334H12.189V39.5H22.0148V26.3334Z" stroke="white" stroke-width="0.630746"/>
<path id="Vector_38" d="M31.8405 26.3334H22.0146V39.5H31.8405V26.3334Z" stroke="white" stroke-width="0.630746"/>
<path id="Vector_39" d="M41.6667 26.3334H31.8408V39.5H41.6667V26.3334Z" stroke="white" stroke-width="0.630746"/>
<path id="Vector_40" d="M51.4924 26.3334H41.6665V39.5H51.4924V26.3334Z" stroke="white" stroke-width="0.630746"/>
<path id="Vector_41" d="M61.3181 26.3334H51.4922V39.5H61.3181V26.3334Z" stroke="white" stroke-width="0.630746"/>
<path id="Vector_42" d="M71.1442 26.3334H61.3184V39.5H71.1442V26.3334Z" stroke="white" stroke-width="0.630746"/>
<path id="Vector_43" d="M80.9699 26.3334H71.144V39.5H80.9699V26.3334Z" stroke="white" stroke-width="0.630746"/>
<path id="Vector_44" d="M90.7956 26.3334H80.9697V39.5H90.7956V26.3334Z" stroke="white" stroke-width="0.630746"/>
<path id="Vector_45" d="M100.622 26.3334H90.7959V39.5H100.622V26.3334Z" stroke="white" stroke-width="0.630746"/>
<path id="Vector_46" d="M110.447 26.3334H100.622V39.5H110.447V26.3334Z" stroke="white" stroke-width="0.630746"/>
<path id="Vector_47" d="M120.274 26.3334H110.448V39.5H120.274V26.3334Z" stroke="white" stroke-width="0.630746"/>
<path id="Vector_48" d="M130.099 26.3334H120.273V39.5H130.099V26.3334Z" stroke="white" stroke-width="0.630746"/>
<path id="Vector_49" d="M139.925 26.3334H130.099V39.5H139.925V26.3334Z" stroke="white" stroke-width="0.630746"/>
<path id="Vector_50" d="M149.751 26.3334H139.925V39.5H149.751V26.3334Z" stroke="white" stroke-width="0.630746"/>
<path id="Vector_51" d="M159.577 26.3334H149.751V39.5H159.577V26.3334Z" stroke="white" stroke-width="0.630746"/>
<path id="Vector_52" d="M2.36298 39.5H-7.46289V52.6667H2.36298V39.5Z" stroke="white" stroke-width="0.630746"/>
<path id="Vector_53" d="M12.1887 39.5H2.36279V52.6667H12.1887V39.5Z" stroke="white" stroke-width="0.630746"/>
<path id="Vector_54" d="M22.0148 39.5H12.189V52.6667H22.0148V39.5Z" stroke="white" stroke-width="0.630746"/>
<path id="Vector_55" d="M31.8405 39.5H22.0146V52.6667H31.8405V39.5Z" stroke="white" stroke-width="0.630746"/>
<path id="Vector_56" d="M41.6667 39.5H31.8408V52.6667H41.6667V39.5Z" stroke="white" stroke-width="0.630746"/>
<path id="Vector_57" d="M51.4924 39.5H41.6665V52.6667H51.4924V39.5Z" stroke="white" stroke-width="0.630746"/>
<path id="Vector_58" d="M61.3181 39.5H51.4922V52.6667H61.3181V39.5Z" stroke="white" stroke-width="0.630746"/>
<path id="Vector_59" d="M71.1442 39.5H61.3184V52.6667H71.1442V39.5Z" stroke="white" stroke-width="0.630746"/>
<path id="Vector_60" d="M80.9699 39.5H71.144V52.6667H80.9699V39.5Z" stroke="white" stroke-width="0.630746"/>
<path id="Vector_61" d="M90.7956 39.5H80.9697V52.6667H90.7956V39.5Z" stroke="white" stroke-width="0.630746"/>
<path id="Vector_62" d="M100.622 39.5H90.7959V52.6667H100.622V39.5Z" stroke="white" stroke-width="0.630746"/>
<path id="Vector_63" d="M110.447 39.5H100.622V52.6667H110.447V39.5Z" stroke="white" stroke-width="0.630746"/>
<path id="Vector_64" d="M120.274 39.5H110.448V52.6667H120.274V39.5Z" stroke="white" stroke-width="0.630746"/>
<path id="Vector_65" d="M130.099 39.5H120.273V52.6667H130.099V39.5Z" stroke="white" stroke-width="0.630746"/>
<path id="Vector_66" d="M139.925 39.5H130.099V52.6667H139.925V39.5Z" stroke="white" stroke-width="0.630746"/>
<path id="Vector_67" d="M149.751 39.5H139.925V52.6667H149.751V39.5Z" stroke="white" stroke-width="0.630746"/>
<path id="Vector_68" d="M159.577 39.5H149.751V52.6667H159.577V39.5Z" stroke="white" stroke-width="0.630746"/>
<path id="Vector_69" d="M2.36298 52.6667H-7.46289V65.8334H2.36298V52.6667Z" stroke="white" stroke-width="0.630746"/>
<path id="Vector_70" d="M12.1887 52.6667H2.36279V65.8334H12.1887V52.6667Z" stroke="white" stroke-width="0.630746"/>
<path id="Vector_71" d="M22.0148 52.6667H12.189V65.8334H22.0148V52.6667Z" stroke="white" stroke-width="0.630746"/>
<path id="Vector_72" d="M31.8405 52.6667H22.0146V65.8334H31.8405V52.6667Z" stroke="white" stroke-width="0.630746"/>
<path id="Vector_73" d="M41.6667 52.6667H31.8408V65.8334H41.6667V52.6667Z" stroke="white" stroke-width="0.630746"/>
<path id="Vector_74" d="M51.4924 52.6667H41.6665V65.8334H51.4924V52.6667Z" stroke="white" stroke-width="0.630746"/>
<path id="Vector_75" d="M61.3181 52.6667H51.4922V65.8334H61.3181V52.6667Z" stroke="white" stroke-width="0.630746"/>
<path id="Vector_76" d="M71.1442 52.6667H61.3184V65.8334H71.1442V52.6667Z" stroke="white" stroke-width="0.630746"/>
<path id="Vector_77" d="M80.9699 52.6667H71.144V65.8334H80.9699V52.6667Z" stroke="white" stroke-width="0.630746"/>
<path id="Vector_78" d="M90.7956 52.6667H80.9697V65.8334H90.7956V52.6667Z" stroke="white" stroke-width="0.630746"/>
<path id="Vector_79" d="M100.622 52.6667H90.7959V65.8334H100.622V52.6667Z" stroke="white" stroke-width="0.630746"/>
<path id="Vector_80" d="M110.447 52.6667H100.622V65.8334H110.447V52.6667Z" stroke="white" stroke-width="0.630746"/>
<path id="Vector_81" d="M120.274 52.6667H110.448V65.8334H120.274V52.6667Z" stroke="white" stroke-width="0.630746"/>
<path id="Vector_82" d="M130.099 52.6667H120.273V65.8334H130.099V52.6667Z" stroke="white" stroke-width="0.630746"/>
<path id="Vector_83" d="M139.925 52.6667H130.099V65.8334H139.925V52.6667Z" stroke="white" stroke-width="0.630746"/>
<path id="Vector_84" d="M149.751 52.6667H139.925V65.8334H149.751V52.6667Z" stroke="white" stroke-width="0.630746"/>
<path id="Vector_85" d="M159.577 52.6667H149.751V65.8334H159.577V52.6667Z" stroke="white" stroke-width="0.630746"/>
<path id="Vector_86" d="M2.36298 65.8333H-7.46289V79H2.36298V65.8333Z" stroke="white" stroke-width="0.630746"/>
<path id="Vector_87" d="M12.1887 65.8333H2.36279V79H12.1887V65.8333Z" stroke="white" stroke-width="0.630746"/>
<path id="Vector_88" d="M22.0148 65.8333H12.189V79H22.0148V65.8333Z" stroke="white" stroke-width="0.630746"/>
<path id="Vector_89" d="M31.8405 65.8333H22.0146V79H31.8405V65.8333Z" stroke="white" stroke-width="0.630746"/>
<path id="Vector_90" d="M41.6667 65.8333H31.8408V79H41.6667V65.8333Z" stroke="white" stroke-width="0.630746"/>
<path id="Vector_91" d="M51.4924 65.8333H41.6665V79H51.4924V65.8333Z" stroke="white" stroke-width="0.630746"/>
<path id="Vector_92" d="M61.3181 65.8333H51.4922V79H61.3181V65.8333Z" stroke="white" stroke-width="0.630746"/>
<path id="Vector_93" d="M71.1442 65.8333H61.3184V79H71.1442V65.8333Z" stroke="white" stroke-width="0.630746"/>
<path id="Vector_94" d="M80.9699 65.8333H71.144V79H80.9699V65.8333Z" stroke="white" stroke-width="0.630746"/>
<path id="Vector_95" d="M90.7956 65.8333H80.9697V79H90.7956V65.8333Z" stroke="white" stroke-width="0.630746"/>
<path id="Vector_96" d="M100.622 65.8333H90.7959V79H100.622V65.8333Z" stroke="white" stroke-width="0.630746"/>
<path id="Vector_97" d="M110.447 65.8333H100.622V79H110.447V65.8333Z" stroke="white" stroke-width="0.630746"/>
<path id="Vector_98" d="M120.274 65.8333H110.448V79H120.274V65.8333Z" stroke="white" stroke-width="0.630746"/>
<path id="Vector_99" d="M130.099 65.8333H120.273V79H130.099V65.8333Z" stroke="white" stroke-width="0.630746"/>
<path id="Vector_100" d="M139.925 65.8333H130.099V79H139.925V65.8333Z" stroke="white" stroke-width="0.630746"/>
<path id="Vector_101" d="M149.751 65.8333H139.925V79H149.751V65.8333Z" stroke="white" stroke-width="0.630746"/>
<path id="Vector_102" d="M159.577 65.8333H149.751V79H159.577V65.8333Z" stroke="white" stroke-width="0.630746"/>
<path id="Vector_103" d="M2.36298 79H-7.46289V92.1667H2.36298V79Z" stroke="white" stroke-width="0.630746"/>
<path id="Vector_104" d="M12.1887 79H2.36279V92.1667H12.1887V79Z" stroke="white" stroke-width="0.630746"/>
<path id="Vector_105" d="M22.0148 79H12.189V92.1667H22.0148V79Z" stroke="white" stroke-width="0.630746"/>
<path id="Vector_106" d="M31.8405 79H22.0146V92.1667H31.8405V79Z" stroke="white" stroke-width="0.630746"/>
<path id="Vector_107" d="M41.6667 79H31.8408V92.1667H41.6667V79Z" stroke="white" stroke-width="0.630746"/>
<path id="Vector_108" d="M51.4924 79H41.6665V92.1667H51.4924V79Z" stroke="white" stroke-width="0.630746"/>
<path id="Vector_109" d="M61.3181 79H51.4922V92.1667H61.3181V79Z" stroke="white" stroke-width="0.630746"/>
<path id="Vector_110" d="M71.1442 79H61.3184V92.1667H71.1442V79Z" stroke="white" stroke-width="0.630746"/>
<path id="Vector_111" d="M80.9699 79H71.144V92.1667H80.9699V79Z" stroke="white" stroke-width="0.630746"/>
<path id="Vector_112" d="M90.7956 79H80.9697V92.1667H90.7956V79Z" stroke="white" stroke-width="0.630746"/>
<path id="Vector_113" d="M100.622 79H90.7959V92.1667H100.622V79Z" stroke="white" stroke-width="0.630746"/>
<path id="Vector_114" d="M110.447 79H100.622V92.1667H110.447V79Z" stroke="white" stroke-width="0.630746"/>
<path id="Vector_115" d="M120.274 79H110.448V92.1667H120.274V79Z" stroke="white" stroke-width="0.630746"/>
<path id="Vector_116" d="M130.099 79H120.273V92.1667H130.099V79Z" stroke="white" stroke-width="0.630746"/>
<path id="Vector_117" d="M139.925 79H130.099V92.1667H139.925V79Z" stroke="white" stroke-width="0.630746"/>
<path id="Vector_118" d="M149.751 79H139.925V92.1667H149.751V79Z" stroke="white" stroke-width="0.630746"/>
<path id="Vector_119" d="M159.577 79H149.751V92.1667H159.577V79Z" stroke="white" stroke-width="0.630746"/>
<path id="Vector_120" d="M2.36298 92.1667H-7.46289V105.333H2.36298V92.1667Z" stroke="white" stroke-width="0.630746"/>
<path id="Vector_121" d="M12.1887 92.1667H2.36279V105.333H12.1887V92.1667Z" stroke="white" stroke-width="0.630746"/>
<path id="Vector_122" d="M22.0148 92.1667H12.189V105.333H22.0148V92.1667Z" stroke="white" stroke-width="0.630746"/>
<path id="Vector_123" d="M31.8405 92.1667H22.0146V105.333H31.8405V92.1667Z" stroke="white" stroke-width="0.630746"/>
<path id="Vector_124" d="M41.6667 92.1667H31.8408V105.333H41.6667V92.1667Z" stroke="white" stroke-width="0.630746"/>
<path id="Vector_125" d="M51.4924 92.1667H41.6665V105.333H51.4924V92.1667Z" stroke="white" stroke-width="0.630746"/>
<path id="Vector_126" d="M61.3181 92.1667H51.4922V105.333H61.3181V92.1667Z" stroke="white" stroke-width="0.630746"/>
<path id="Vector_127" d="M71.1442 92.1667H61.3184V105.333H71.1442V92.1667Z" stroke="white" stroke-width="0.630746"/>
<path id="Vector_128" d="M80.9699 92.1667H71.144V105.333H80.9699V92.1667Z" stroke="white" stroke-width="0.630746"/>
<path id="Vector_129" d="M90.7956 92.1667H80.9697V105.333H90.7956V92.1667Z" stroke="white" stroke-width="0.630746"/>
<path id="Vector_130" d="M100.622 92.1667H90.7959V105.333H100.622V92.1667Z" stroke="white" stroke-width="0.630746"/>
<path id="Vector_131" d="M110.447 92.1667H100.622V105.333H110.447V92.1667Z" stroke="white" stroke-width="0.630746"/>
<path id="Vector_132" d="M120.274 92.1667H110.448V105.333H120.274V92.1667Z" stroke="white" stroke-width="0.630746"/>
<path id="Vector_133" d="M130.099 92.1667H120.273V105.333H130.099V92.1667Z" stroke="white" stroke-width="0.630746"/>
<path id="Vector_134" d="M139.925 92.1667H130.099V105.333H139.925V92.1667Z" stroke="white" stroke-width="0.630746"/>
<path id="Vector_135" d="M149.751 92.1667H139.925V105.333H149.751V92.1667Z" stroke="white" stroke-width="0.630746"/>
<path id="Vector_136" d="M159.577 92.1667H149.751V105.333H159.577V92.1667Z" stroke="white" stroke-width="0.630746"/>
<path id="Vector_137" d="M2.36298 105.333H-7.46289V118.5H2.36298V105.333Z" stroke="white" stroke-width="0.630746"/>
<path id="Vector_138" d="M12.1887 105.333H2.36279V118.5H12.1887V105.333Z" stroke="white" stroke-width="0.630746"/>
<path id="Vector_139" d="M22.0148 105.333H12.189V118.5H22.0148V105.333Z" stroke="white" stroke-width="0.630746"/>
<path id="Vector_140" d="M31.8405 105.333H22.0146V118.5H31.8405V105.333Z" stroke="white" stroke-width="0.630746"/>
<path id="Vector_141" d="M41.6667 105.333H31.8408V118.5H41.6667V105.333Z" stroke="white" stroke-width="0.630746"/>
<path id="Vector_142" d="M51.4924 105.333H41.6665V118.5H51.4924V105.333Z" stroke="white" stroke-width="0.630746"/>
<path id="Vector_143" d="M61.3181 105.333H51.4922V118.5H61.3181V105.333Z" stroke="white" stroke-width="0.630746"/>
<path id="Vector_144" d="M71.1442 105.333H61.3184V118.5H71.1442V105.333Z" stroke="white" stroke-width="0.630746"/>
<path id="Vector_145" d="M80.9699 105.333H71.144V118.5H80.9699V105.333Z" stroke="white" stroke-width="0.630746"/>
<path id="Vector_146" d="M90.7956 105.333H80.9697V118.5H90.7956V105.333Z" stroke="white" stroke-width="0.630746"/>
<path id="Vector_147" d="M100.622 105.333H90.7959V118.5H100.622V105.333Z" stroke="white" stroke-width="0.630746"/>
<path id="Vector_148" d="M110.447 105.333H100.622V118.5H110.447V105.333Z" stroke="white" stroke-width="0.630746"/>
<path id="Vector_149" d="M120.274 105.333H110.448V118.5H120.274V105.333Z" stroke="white" stroke-width="0.630746"/>
<path id="Vector_150" d="M130.099 105.333H120.273V118.5H130.099V105.333Z" stroke="white" stroke-width="0.630746"/>
<path id="Vector_151" d="M139.925 105.333H130.099V118.5H139.925V105.333Z" stroke="white" stroke-width="0.630746"/>
<path id="Vector_152" d="M149.751 105.333H139.925V118.5H149.751V105.333Z" stroke="white" stroke-width="0.630746"/>
<path id="Vector_153" d="M159.577 105.333H149.751V118.5H159.577V105.333Z" stroke="white" stroke-width="0.630746"/>
<path id="Vector_154" d="M2.36298 118.5H-7.46289V131.667H2.36298V118.5Z" stroke="white" stroke-width="0.630746"/>
<path id="Vector_155" d="M12.1887 118.5H2.36279V131.667H12.1887V118.5Z" stroke="white" stroke-width="0.630746"/>
<path id="Vector_156" d="M22.0148 118.5H12.189V131.667H22.0148V118.5Z" stroke="white" stroke-width="0.630746"/>
<path id="Vector_157" d="M31.8405 118.5H22.0146V131.667H31.8405V118.5Z" stroke="white" stroke-width="0.630746"/>
<path id="Vector_158" d="M41.6667 118.5H31.8408V131.667H41.6667V118.5Z" stroke="white" stroke-width="0.630746"/>
<path id="Vector_159" d="M51.4924 118.5H41.6665V131.667H51.4924V118.5Z" stroke="white" stroke-width="0.630746"/>
<path id="Vector_160" d="M61.3181 118.5H51.4922V131.667H61.3181V118.5Z" stroke="white" stroke-width="0.630746"/>
<path id="Vector_161" d="M71.1442 118.5H61.3184V131.667H71.1442V118.5Z" stroke="white" stroke-width="0.630746"/>
<path id="Vector_162" d="M80.9699 118.5H71.144V131.667H80.9699V118.5Z" stroke="white" stroke-width="0.630746"/>
<path id="Vector_163" d="M90.7956 118.5H80.9697V131.667H90.7956V118.5Z" stroke="white" stroke-width="0.630746"/>
<path id="Vector_164" d="M100.622 118.5H90.7959V131.667H100.622V118.5Z" stroke="white" stroke-width="0.630746"/>
<path id="Vector_165" d="M110.447 118.5H100.622V131.667H110.447V118.5Z" stroke="white" stroke-width="0.630746"/>
<path id="Vector_166" d="M120.274 118.5H110.448V131.667H120.274V118.5Z" stroke="white" stroke-width="0.630746"/>
<path id="Vector_167" d="M130.099 118.5H120.273V131.667H130.099V118.5Z" stroke="white" stroke-width="0.630746"/>
<path id="Vector_168" d="M139.925 118.5H130.099V131.667H139.925V118.5Z" stroke="white" stroke-width="0.630746"/>
<path id="Vector_169" d="M149.751 118.5H139.925V131.667H149.751V118.5Z" stroke="white" stroke-width="0.630746"/>
<path id="Vector_170" d="M159.577 118.5H149.751V131.667H159.577V118.5Z" stroke="white" stroke-width="0.630746"/>
<path id="Vector_171" d="M2.36298 131.667H-7.46289V144.833H2.36298V131.667Z" stroke="white" stroke-width="0.630746"/>
<path id="Vector_172" d="M12.1887 131.667H2.36279V144.833H12.1887V131.667Z" stroke="white" stroke-width="0.630746"/>
<path id="Vector_173" d="M22.0148 131.667H12.189V144.833H22.0148V131.667Z" stroke="white" stroke-width="0.630746"/>
<path id="Vector_174" d="M31.8405 131.667H22.0146V144.833H31.8405V131.667Z" stroke="white" stroke-width="0.630746"/>
<path id="Vector_175" d="M41.6667 131.667H31.8408V144.833H41.6667V131.667Z" stroke="white" stroke-width="0.630746"/>
<path id="Vector_176" d="M51.4924 131.667H41.6665V144.833H51.4924V131.667Z" stroke="white" stroke-width="0.630746"/>
<path id="Vector_177" d="M61.3181 131.667H51.4922V144.833H61.3181V131.667Z" stroke="white" stroke-width="0.630746"/>
<path id="Vector_178" d="M71.1442 131.667H61.3184V144.833H71.1442V131.667Z" stroke="white" stroke-width="0.630746"/>
<path id="Vector_179" d="M80.9699 131.667H71.144V144.833H80.9699V131.667Z" stroke="white" stroke-width="0.630746"/>
<path id="Vector_180" d="M90.7956 131.667H80.9697V144.833H90.7956V131.667Z" stroke="white" stroke-width="0.630746"/>
<path id="Vector_181" d="M100.622 131.667H90.7959V144.833H100.622V131.667Z" stroke="white" stroke-width="0.630746"/>
<path id="Vector_182" d="M110.447 131.667H100.622V144.833H110.447V131.667Z" stroke="white" stroke-width="0.630746"/>
<path id="Vector_183" d="M120.274 131.667H110.448V144.833H120.274V131.667Z" stroke="white" stroke-width="0.630746"/>
<path id="Vector_184" d="M130.099 131.667H120.273V144.833H130.099V131.667Z" stroke="white" stroke-width="0.630746"/>
<path id="Vector_185" d="M139.925 131.667H130.099V144.833H139.925V131.667Z" stroke="white" stroke-width="0.630746"/>
<path id="Vector_186" d="M149.751 131.667H139.925V144.833H149.751V131.667Z" stroke="white" stroke-width="0.630746"/>
<path id="Vector_187" d="M159.577 131.667H149.751V144.833H159.577V131.667Z" stroke="white" stroke-width="0.630746"/>
<path id="Vector_188" d="M2.36298 144.833H-7.46289V158H2.36298V144.833Z" stroke="white" stroke-width="0.630746"/>
<path id="Vector_189" d="M12.1887 144.833H2.36279V158H12.1887V144.833Z" stroke="white" stroke-width="0.630746"/>
<path id="Vector_190" d="M22.0148 144.833H12.189V158H22.0148V144.833Z" stroke="white" stroke-width="0.630746"/>
<path id="Vector_191" d="M31.8405 144.833H22.0146V158H31.8405V144.833Z" stroke="white" stroke-width="0.630746"/>
<path id="Vector_192" d="M41.6667 144.833H31.8408V158H41.6667V144.833Z" stroke="white" stroke-width="0.630746"/>
<path id="Vector_193" d="M51.4924 144.833H41.6665V158H51.4924V144.833Z" stroke="white" stroke-width="0.630746"/>
<path id="Vector_194" d="M61.3181 144.833H51.4922V158H61.3181V144.833Z" stroke="white" stroke-width="0.630746"/>
<path id="Vector_195" d="M71.1442 144.833H61.3184V158H71.1442V144.833Z" stroke="white" stroke-width="0.630746"/>
<path id="Vector_196" d="M80.9699 144.833H71.144V158H80.9699V144.833Z" stroke="white" stroke-width="0.630746"/>
<path id="Vector_197" d="M90.7956 144.833H80.9697V158H90.7956V144.833Z" stroke="white" stroke-width="0.630746"/>
<path id="Vector_198" d="M100.622 144.833H90.7959V158H100.622V144.833Z" stroke="white" stroke-width="0.630746"/>
<path id="Vector_199" d="M110.447 144.833H100.622V158H110.447V144.833Z" stroke="white" stroke-width="0.630746"/>
<path id="Vector_200" d="M120.274 144.833H110.448V158H120.274V144.833Z" stroke="white" stroke-width="0.630746"/>
<path id="Vector_201" d="M130.099 144.833H120.273V158H130.099V144.833Z" stroke="white" stroke-width="0.630746"/>
<path id="Vector_202" d="M139.925 144.833H130.099V158H139.925V144.833Z" stroke="white" stroke-width="0.630746"/>
<path id="Vector_203" d="M149.751 144.833H139.925V158H149.751V144.833Z" stroke="white" stroke-width="0.630746"/>
<path id="Vector_204" d="M159.577 144.833H149.751V158H159.577V144.833Z" stroke="white" stroke-width="0.630746"/>
<path id="Vector_205" d="M2.36298 158H-7.46289V171.167H2.36298V158Z" stroke="white" stroke-width="0.630746"/>
<path id="Vector_206" d="M12.1887 158H2.36279V171.167H12.1887V158Z" stroke="white" stroke-width="0.630746"/>
<path id="Vector_207" d="M22.0148 158H12.189V171.167H22.0148V158Z" stroke="white" stroke-width="0.630746"/>
<path id="Vector_208" d="M31.8405 158H22.0146V171.167H31.8405V158Z" stroke="white" stroke-width="0.630746"/>
<path id="Vector_209" d="M41.6667 158H31.8408V171.167H41.6667V158Z" stroke="white" stroke-width="0.630746"/>
<path id="Vector_210" d="M51.4924 158H41.6665V171.167H51.4924V158Z" stroke="white" stroke-width="0.630746"/>
<path id="Vector_211" d="M61.3181 158H51.4922V171.167H61.3181V158Z" stroke="white" stroke-width="0.630746"/>
<path id="Vector_212" d="M71.1442 158H61.3184V171.167H71.1442V158Z" stroke="white" stroke-width="0.630746"/>
<path id="Vector_213" d="M80.9699 158H71.144V171.167H80.9699V158Z" stroke="white" stroke-width="0.630746"/>
<path id="Vector_214" d="M90.7956 158H80.9697V171.167H90.7956V158Z" stroke="white" stroke-width="0.630746"/>
<path id="Vector_215" d="M100.622 158H90.7959V171.167H100.622V158Z" stroke="white" stroke-width="0.630746"/>
<path id="Vector_216" d="M110.447 158H100.622V171.167H110.447V158Z" stroke="white" stroke-width="0.630746"/>
<path id="Vector_217" d="M120.274 158H110.448V171.167H120.274V158Z" stroke="white" stroke-width="0.630746"/>
<path id="Vector_218" d="M130.099 158H120.273V171.167H130.099V158Z" stroke="white" stroke-width="0.630746"/>
<path id="Vector_219" d="M139.925 158H130.099V171.167H139.925V158Z" stroke="white" stroke-width="0.630746"/>
<path id="Vector_220" d="M149.751 158H139.925V171.167H149.751V158Z" stroke="white" stroke-width="0.630746"/>
<path id="Vector_221" d="M159.577 158H149.751V171.167H159.577V158Z" stroke="white" stroke-width="0.630746"/>
<path id="Vector_222" d="M2.36298 171.167H-7.46289V184.333H2.36298V171.167Z" stroke="white" stroke-width="0.630746"/>
<path id="Vector_223" d="M12.1887 171.167H2.36279V184.333H12.1887V171.167Z" stroke="white" stroke-width="0.630746"/>
<path id="Vector_224" d="M22.0148 171.167H12.189V184.333H22.0148V171.167Z" stroke="white" stroke-width="0.630746"/>
<path id="Vector_225" d="M31.8405 171.167H22.0146V184.333H31.8405V171.167Z" stroke="white" stroke-width="0.630746"/>
<path id="Vector_226" d="M41.6667 171.167H31.8408V184.333H41.6667V171.167Z" stroke="white" stroke-width="0.630746"/>
<path id="Vector_227" d="M51.4924 171.167H41.6665V184.333H51.4924V171.167Z" stroke="white" stroke-width="0.630746"/>
<path id="Vector_228" d="M61.3181 171.167H51.4922V184.333H61.3181V171.167Z" stroke="white" stroke-width="0.630746"/>
<path id="Vector_229" d="M71.1442 171.167H61.3184V184.333H71.1442V171.167Z" stroke="white" stroke-width="0.630746"/>
<path id="Vector_230" d="M80.9699 171.167H71.144V184.333H80.9699V171.167Z" stroke="white" stroke-width="0.630746"/>
<path id="Vector_231" d="M90.7956 171.167H80.9697V184.333H90.7956V171.167Z" stroke="white" stroke-width="0.630746"/>
<path id="Vector_232" d="M100.622 171.167H90.7959V184.333H100.622V171.167Z" stroke="white" stroke-width="0.630746"/>
<path id="Vector_233" d="M110.447 171.167H100.622V184.333H110.447V171.167Z" stroke="white" stroke-width="0.630746"/>
<path id="Vector_234" d="M120.274 171.167H110.448V184.333H120.274V171.167Z" stroke="white" stroke-width="0.630746"/>
<path id="Vector_235" d="M130.099 171.167H120.273V184.333H130.099V171.167Z" stroke="white" stroke-width="0.630746"/>
<path id="Vector_236" d="M139.925 171.167H130.099V184.333H139.925V171.167Z" stroke="white" stroke-width="0.630746"/>
<path id="Vector_237" d="M149.751 171.167H139.925V184.333H149.751V171.167Z" stroke="white" stroke-width="0.630746"/>
<path id="Vector_238" d="M159.577 171.167H149.751V184.333H159.577V171.167Z" stroke="white" stroke-width="0.630746"/>
<path id="Vector_239" d="M2.36298 184.333H-7.46289V197.5H2.36298V184.333Z" stroke="white" stroke-width="0.630746"/>
<path id="Vector_240" d="M12.1887 184.333H2.36279V197.5H12.1887V184.333Z" stroke="white" stroke-width="0.630746"/>
<path id="Vector_241" d="M22.0148 184.333H12.189V197.5H22.0148V184.333Z" stroke="white" stroke-width="0.630746"/>
<path id="Vector_242" d="M31.8405 184.333H22.0146V197.5H31.8405V184.333Z" stroke="white" stroke-width="0.630746"/>
<path id="Vector_243" d="M41.6667 184.333H31.8408V197.5H41.6667V184.333Z" stroke="white" stroke-width="0.630746"/>
<path id="Vector_244" d="M51.4924 184.333H41.6665V197.5H51.4924V184.333Z" stroke="white" stroke-width="0.630746"/>
<path id="Vector_245" d="M61.3181 184.333H51.4922V197.5H61.3181V184.333Z" stroke="white" stroke-width="0.630746"/>
<path id="Vector_246" d="M71.1442 184.333H61.3184V197.5H71.1442V184.333Z" stroke="white" stroke-width="0.630746"/>
<path id="Vector_247" d="M80.9699 184.333H71.144V197.5H80.9699V184.333Z" stroke="white" stroke-width="0.630746"/>
<path id="Vector_248" d="M90.7956 184.333H80.9697V197.5H90.7956V184.333Z" stroke="white" stroke-width="0.630746"/>
<path id="Vector_249" d="M100.622 184.333H90.7959V197.5H100.622V184.333Z" stroke="white" stroke-width="0.630746"/>
<path id="Vector_250" d="M110.447 184.333H100.622V197.5H110.447V184.333Z" stroke="white" stroke-width="0.630746"/>
<path id="Vector_251" d="M120.274 184.333H110.448V197.5H120.274V184.333Z" stroke="white" stroke-width="0.630746"/>
<path id="Vector_252" d="M130.099 184.333H120.273V197.5H130.099V184.333Z" stroke="white" stroke-width="0.630746"/>
<path id="Vector_253" d="M139.925 184.333H130.099V197.5H139.925V184.333Z" stroke="white" stroke-width="0.630746"/>
<path id="Vector_254" d="M149.751 184.333H139.925V197.5H149.751V184.333Z" stroke="white" stroke-width="0.630746"/>
<path id="Vector_255" d="M159.577 184.333H149.751V197.5H159.577V184.333Z" stroke="white" stroke-width="0.630746"/>
<path id="Vector_256" d="M2.36298 197.5H-7.46289V210.667H2.36298V197.5Z" stroke="white" stroke-width="0.630746"/>
<path id="Vector_257" d="M12.1887 197.5H2.36279V210.667H12.1887V197.5Z" stroke="white" stroke-width="0.630746"/>
<path id="Vector_258" d="M22.0148 197.5H12.189V210.667H22.0148V197.5Z" stroke="white" stroke-width="0.630746"/>
<path id="Vector_259" d="M31.8405 197.5H22.0146V210.667H31.8405V197.5Z" stroke="white" stroke-width="0.630746"/>
<path id="Vector_260" d="M41.6667 197.5H31.8408V210.667H41.6667V197.5Z" stroke="white" stroke-width="0.630746"/>
<path id="Vector_261" d="M51.4924 197.5H41.6665V210.667H51.4924V197.5Z" stroke="white" stroke-width="0.630746"/>
<path id="Vector_262" d="M61.3181 197.5H51.4922V210.667H61.3181V197.5Z" stroke="white" stroke-width="0.630746"/>
<path id="Vector_263" d="M71.1442 197.5H61.3184V210.667H71.1442V197.5Z" stroke="white" stroke-width="0.630746"/>
<path id="Vector_264" d="M80.9699 197.5H71.144V210.667H80.9699V197.5Z" stroke="white" stroke-width="0.630746"/>
<path id="Vector_265" d="M90.7956 197.5H80.9697V210.667H90.7956V197.5Z" stroke="white" stroke-width="0.630746"/>
<path id="Vector_266" d="M100.622 197.5H90.7959V210.667H100.622V197.5Z" stroke="white" stroke-width="0.630746"/>
<path id="Vector_267" d="M110.447 197.5H100.622V210.667H110.447V197.5Z" stroke="white" stroke-width="0.630746"/>
<path id="Vector_268" d="M120.274 197.5H110.448V210.667H120.274V197.5Z" stroke="white" stroke-width="0.630746"/>
<path id="Vector_269" d="M130.099 197.5H120.273V210.667H130.099V197.5Z" stroke="white" stroke-width="0.630746"/>
<path id="Vector_270" d="M139.925 197.5H130.099V210.667H139.925V197.5Z" stroke="white" stroke-width="0.630746"/>
<path id="Vector_271" d="M149.751 197.5H139.925V210.667H149.751V197.5Z" stroke="white" stroke-width="0.630746"/>
<path id="Vector_272" d="M159.577 197.5H149.751V210.667H159.577V197.5Z" stroke="white" stroke-width="0.630746"/>
<path id="Vector_273" d="M2.36298 210.667H-7.46289V223.833H2.36298V210.667Z" stroke="white" stroke-width="0.630746"/>
<path id="Vector_274" d="M12.1887 210.667H2.36279V223.833H12.1887V210.667Z" stroke="white" stroke-width="0.630746"/>
<path id="Vector_275" d="M22.0148 210.667H12.189V223.833H22.0148V210.667Z" stroke="white" stroke-width="0.630746"/>
<path id="Vector_276" d="M31.8405 210.667H22.0146V223.833H31.8405V210.667Z" stroke="white" stroke-width="0.630746"/>
<path id="Vector_277" d="M41.6667 210.667H31.8408V223.833H41.6667V210.667Z" stroke="white" stroke-width="0.630746"/>
<path id="Vector_278" d="M51.4924 210.667H41.6665V223.833H51.4924V210.667Z" stroke="white" stroke-width="0.630746"/>
<path id="Vector_279" d="M61.3181 210.667H51.4922V223.833H61.3181V210.667Z" stroke="white" stroke-width="0.630746"/>
<path id="Vector_280" d="M71.1442 210.667H61.3184V223.833H71.1442V210.667Z" stroke="white" stroke-width="0.630746"/>
<path id="Vector_281" d="M80.9699 210.667H71.144V223.833H80.9699V210.667Z" stroke="white" stroke-width="0.630746"/>
<path id="Vector_282" d="M90.7956 210.667H80.9697V223.833H90.7956V210.667Z" stroke="white" stroke-width="0.630746"/>
<path id="Vector_283" d="M100.622 210.667H90.7959V223.833H100.622V210.667Z" stroke="white" stroke-width="0.630746"/>
<path id="Vector_284" d="M110.447 210.667H100.622V223.833H110.447V210.667Z" stroke="white" stroke-width="0.630746"/>
<path id="Vector_285" d="M120.274 210.667H110.448V223.833H120.274V210.667Z" stroke="white" stroke-width="0.630746"/>
<path id="Vector_286" d="M130.099 210.667H120.273V223.833H130.099V210.667Z" stroke="white" stroke-width="0.630746"/>
<path id="Vector_287" d="M139.925 210.667H130.099V223.833H139.925V210.667Z" stroke="white" stroke-width="0.630746"/>
<path id="Vector_288" d="M149.751 210.667H139.925V223.833H149.751V210.667Z" stroke="white" stroke-width="0.630746"/>
<path id="Vector_289" d="M159.577 210.667H149.751V223.833H159.577V210.667Z" stroke="white" stroke-width="0.630746"/>
</g>
</g>
<defs>
<clipPath id="clip0_571_1346">
<rect width="150" height="222" fill="white"/>
</clipPath>
</defs>
</svg>
